{"title":"Jethro - The Cornish Ambassador.DVDRip.Ac3.Xvid.ANALOG","uid":6853262,"size":744431144,"categoryP":"video","categoryS":"movies","magnet":"?xt=urn:btih:e41c36b6b9845adabfc98777e6f12a97311cd566&amp;dn=Jethro+-+The+Cornish+Ambassador.DVDRip.Ac3.Xvid.ANALOG&amp;tr=udp%3A%2F%2Ftracker.openbittorrent.com%3A80&amp;tr=udp%3A%2F%2Fopen.demonii.com%3A1337&amp;tr=udp%3A%2F%2Ftracker.coppersurfer.tk%3A6969&amp;tr=udp%3A%2F%2Fexodus.desync.com%3A6969","seeders":0,"leechers":1,"uploader":"sceneline","files":8,"time":1322602525,"description":"- &lt;a href=&quot;\nhttp://www.Speed.Cd&quot; rel=&quot;nofollow&quot; target=&quot;_NEW&quot;&gt;\nhttp://www.Speed.Cd&lt;/a&gt;      fast  and The Hottest Private Tracker on the net\n\n   signup is open now\n\nPlease Seed back to make the speed Faster!!!\n\n------------------nfo--------------------------\n-[img]http://ecx.images-amazon.com/images/I/51NuSmrbzwL._SL500_AA300_.jpg[/img]\n[img]http://img265.imageshack.us/img265/7270/jtcaddranalogavisnapsho.png[/img]\n[img]http://img268.imageshack.us/img268/7270/jtcaddranalogavisnapsho.png[/img]\n[img]http://img163.imageshack.us/img163/7270/jtcaddranalogavisnapsho.png[/img]\n\nComplete name                            : C:\\Users\\root\\Desktop\\Jethro - The Cornish Ambassador.DVDRip.Ac3.Xvid.ANALOG\\J.T.C.A.DDR.ANALOG.avi\nFormat                                   : AVI\nFormat/Info                              : Audio Video Interleave\nFile size                                : 702 MiB\nDuration                                 : 1h 6mn\nOverall bit rate                         : 1 467 Kbps\nMovie name                               : J.T.C.A.DDR.ANALOG\nWriting application                      : VirtualDubMod 1.5.4.1 (build 2178/release) VirtualDubMod build 2178/release\nWriting library                          : VirtualDub build 32842/release\nCopyright                                : ANALOG\nEncoded by                               : Cooperman\n\nVideo\nID                                       : 0\nFormat                                   : MPEG-4 Visual\nFormat profile                           : Advanced Simple@L5\nFormat settings, BVOP                    : 1\nFormat settings, QPel                    : No\nFormat settings, GMC                     : No warppoints\nFormat settings, Matrix                  : Custom\nCodec ID                                 : XVID\nCodec ID/Hint                            : XviD\nDuration                                 : 1h 6mn\nBit rate                                 : 1 234 Kbps\nWidth                                    : 688 pixels\nHeight                                   : 384 pixels\nDisplay aspect ratio                     : 16:9\nFrame rate                               : 23.976 fps\nColor space                              : YUV\nChroma subsampling                       : 4:2:0\nBit depth                                : 8 bits\nScan type                                : Progressive\nCompression mode                         : Lossy\nBits/(Pixel*Frame)                       : 0.195\nStream size                              : 590 MiB (84%)\nWriting library                          : XviD 64\n\nAudio\nID                                       : 1\nFormat                                   : AC-3\nFormat/Info                              : Audio Coding 3\nMode extension                           : CM (complete main)\nCodec ID                                 : 2000\nDuration                                 : 1h 6mn\nBit rate mode                            : Constant\nBit rate                                 : 224 Kbps\nChannel(s)                               : 2 channels\nChannel positions                        : Front: L R\nSampling rate                            : 48.0 KHz\nBit depth                                : 16 bits\nCompression mode                         : Lossy\nDelay relative to video                  : 506ms\nStream size                              : 107 MiB (15%)\nAlignment                                : Split accross interleaves\nInterleave, duration                     : 42 ms (1.00 video frame)\nInterleave, preload duration             : 500 ms\nSample                                   : Yes! check it!! thats what its for!!\nsource file                              : Jethro - The Cornish Ambassador DVD-R  THANX :)\nAs humans, we perceive the world in analog. Everything we see and hear is a continuous transmission of information to our senses.\n&lt;a class=&quot;__cf_email__&quot; href=&quot;/cdn-cgi/l/email-protection&quot; data-cfemail=&quot;6f2e212e232028413f415d413f2f273a3c27222e2623412c2022&quot;&gt;[email&amp;#160;protected]&lt;/a&gt;&lt;script cf-hash='f9e31' type=&quot;text/javascript&quot;&gt;\n/* &lt;![CDATA[ */!function(){try{var t=&quot;currentScript&quot;in document?document.currentScript:function(){for(var t=document.getElementsByTagName(&quot;script&quot;),e=t.length;e--;)if(t[e].getAttribute(&quot;cf-hash&quot;))return t[e]}();if(t&amp;&amp;t.previousSibling){var e,r,n,i,c=t.previousSibling,a=c.getAttribute(&quot;data-cfemail&quot;);if(a){for(e=&quot;&quot;,r=parseInt(a.substr(0,2),16),n=2;a.length-n;n+=2)i=parseInt(a.substr(n,2),16)^r,e+=String.fromCharCode(i);e=document.createTextNode(e),c.parentNode.replaceChild(e,c)}}}catch(u){}}();/* ]]&gt; */&lt;/script&gt;\nGREATINGS TO ALL THE P2P PLACES I LURK AT!!","torrent":{"xt":"urn:btih:e41c36b6b9845adabfc98777e6f12a97311cd566","amp;dn":"Jethro+-+The+Cornish+Ambassador.DVDRip.Ac3.Xvid.ANALOG","amp;tr":["udp%3A%2F%2Ftracker.openbittorrent.com%3A80","udp%3A%2F%2Fopen.demonii.com%3A1337","udp%3A%2F%2Ftracker.coppersurfer.tk%3A6969","udp%3A%2F%2Fexodus.desync.com%3A6969"],"infoHash":"e41c36b6b9845adabfc98777e6f12a97311cd566","infoHashBuffer":{"type":"Buffer","data":[228,28,54,182,185,132,90,218,191,201,135,119,230,241,42,151,49,28,213,102]},"announce":[],"urlList":[]}}